<svg width="92" height="31" viewBox="0 0 92 31" fill="none" xmlns="http://www.w3.org/2000/svg">
<path d="M87.5435 14.7683C90.6843 20.9154 83.9981 27.1583 74.1131 27.5278C64.2282 27.8973 52.0801 23.4949 51.4498 16.1174C50.8724 9.35986 57.6948 4.12476 63.859 3.89435C73.744 3.52486 83.6117 7.07291 87.5435 14.7683Z" fill="#262E34" fill-opacity="0.12"/>
<path d="M15.872 22V8.986H19.418C20.702 8.986 21.794 9.184 22.694 9.58C23.606 9.976 24.338 10.498 24.89 11.146C25.442 11.794 25.844 12.514 26.096 13.306C26.36 14.086 26.492 14.866 26.492 15.646C26.492 16.63 26.318 17.512 25.97 18.292C25.634 19.072 25.166 19.738 24.566 20.29C23.966 20.842 23.276 21.268 22.496 21.568C21.728 21.856 20.912 22 20.048 22H15.872ZM17.618 20.326H19.706C20.426 20.326 21.086 20.218 21.686 20.002C22.298 19.786 22.826 19.474 23.27 19.066C23.726 18.658 24.08 18.16 24.332 17.572C24.584 16.972 24.71 16.294 24.71 15.538C24.71 14.734 24.578 14.032 24.314 13.432C24.05 12.82 23.69 12.31 23.234 11.902C22.778 11.494 22.262 11.188 21.686 10.984C21.11 10.768 20.504 10.66 19.868 10.66H17.618V20.326ZM29.4247 8.986H37.8847V10.66H31.1707V14.62H37.1647V16.294H31.1707V20.326H38.1367V22H29.4247V8.986Z" fill="#262E34"/>
<path d="M56.872 8.986H65.332V10.66H58.618V14.62H64.612V16.294H58.618V20.326H65.584V22H56.872V8.986ZM79.8822 22.414L69.8202 12.208L70.3242 12.334L70.3602 22H68.6142V8.59H68.7042L78.6582 18.832L78.2442 18.742L78.2082 8.986H79.9362V22.414H79.8822Z" fill="#F8F5EC"/>
</svg>
