<svg width="70" height="100" viewBox="0 0 70 100" fill="none" xmlns="http://www.w3.org/2000/svg">
<path d="M8.00479 8.01057C8.00479 8.24317 7.99401 8.40176 8.00479 8.56035C8.41458 12.9585 8.82437 17.3567 9.22338 21.7655C9.78414 28.0033 10.3341 34.2411 10.8949 40.4684C11.5311 47.4674 12.1782 54.4559 12.7929 61.4549C12.836 61.9624 13.0193 62.1844 13.5046 62.3113C20.4063 64.1721 27.2865 66.0434 34.1882 67.8936C34.6519 68.0205 35.2127 68.0416 35.6764 67.9148C42.5997 66.054 49.5122 64.1615 56.4355 62.2902C56.9639 62.1421 57.1472 61.9095 57.1904 61.3809C57.406 58.7378 57.6649 56.0841 57.9021 53.4409C58.3011 49.0639 58.6893 44.6868 59.0883 40.3098C59.552 35.1715 60.0265 30.0438 60.4902 24.9055C60.8353 21.0783 61.202 17.2616 61.5471 13.4343C61.7088 11.637 61.849 9.83963 62 8H8.00479V8.01057ZM51.5827 23.2774C51.2268 27.1469 50.871 31.0271 50.5151 34.8966C50.1053 39.3477 49.6955 43.7987 49.2857 48.2392C49.1671 49.5185 48.9946 50.7978 48.9622 52.0876C48.9406 52.7748 48.6387 52.9546 48.0564 53.1132C43.8938 54.2127 39.7419 55.344 35.5901 56.4647C35.4068 56.5175 35.2343 56.581 35.0509 56.6338C34.9862 56.6021 34.9215 56.581 34.846 56.5492C30.403 55.3651 25.9601 54.1704 21.5171 52.9651C21.3337 52.9123 21.0965 52.6268 21.0749 52.4259C20.7622 49.1273 20.4818 45.8287 20.1799 42.4666H26.963C27.0816 43.7882 27.211 45.1309 27.3188 46.4842C27.4159 47.7317 27.4051 47.7317 28.6021 48.0489C30.7481 48.6092 32.9049 49.159 35.0509 49.7088L35.0294 49.6559C37.3803 49.0427 39.7312 48.4401 42.0821 47.7846C42.2977 47.7212 42.5458 47.3828 42.5781 47.1502C42.7183 46.1353 42.7938 45.1097 42.8801 44.0948C43.0203 42.456 43.1604 40.8173 43.3114 39.1045H35.0294L35.0509 39.0622C34.997 39.0622 34.9323 39.0622 34.8784 39.0622H19.8671C19.6622 36.8737 19.4681 34.7063 19.2632 32.4755H34.8892C34.9431 32.4755 35.0078 32.4755 35.0617 32.4755L35.0401 32.4332H43.9153C44.1202 30.1601 44.3251 27.9399 44.53 25.6773H35.0294L35.0509 25.635C34.997 25.635 34.9323 25.635 34.8784 25.635C29.5619 25.6456 24.2454 25.6456 18.9289 25.6562C18.8534 25.6562 18.778 25.6245 18.6378 25.5822C18.4436 23.4254 18.2388 21.2686 18.0446 19.0483H34.8784C34.9323 19.0483 34.997 19.0483 35.0509 19.0483L35.0294 19.006H51.9386C51.82 20.4862 51.7013 21.8818 51.5827 23.2774Z" fill="#89BCD9"/>
<path d="M29.43 93.028C29.214 93.172 28.92 93.334 28.548 93.514C28.176 93.694 27.738 93.844 27.234 93.964C26.742 94.084 26.202 94.144 25.614 94.144C24.606 94.132 23.694 93.952 22.878 93.604C22.074 93.256 21.39 92.782 20.826 92.182C20.262 91.582 19.824 90.892 19.512 90.112C19.212 89.32 19.062 88.48 19.062 87.592C19.062 86.62 19.218 85.726 19.53 84.91C19.854 84.082 20.304 83.368 20.88 82.768C21.456 82.156 22.134 81.682 22.914 81.346C23.706 81.01 24.57 80.842 25.506 80.842C26.286 80.842 26.994 80.95 27.63 81.166C28.266 81.37 28.812 81.616 29.268 81.904L28.566 83.524C28.206 83.284 27.768 83.056 27.252 82.84C26.748 82.624 26.184 82.516 25.56 82.516C24.924 82.516 24.324 82.642 23.76 82.894C23.196 83.146 22.698 83.5 22.266 83.956C21.834 84.412 21.492 84.946 21.24 85.558C21 86.158 20.88 86.806 20.88 87.502C20.88 88.21 20.988 88.87 21.204 89.482C21.432 90.082 21.75 90.604 22.158 91.048C22.578 91.492 23.082 91.84 23.67 92.092C24.258 92.344 24.918 92.47 25.65 92.47C26.31 92.47 26.898 92.368 27.414 92.164C27.93 91.96 28.356 91.732 28.692 91.48L29.43 93.028ZM39.102 83.308C38.658 83.08 38.172 82.882 37.644 82.714C37.116 82.546 36.6 82.462 36.096 82.462C35.4 82.462 34.842 82.624 34.422 82.948C34.014 83.272 33.81 83.704 33.81 84.244C33.81 84.652 33.942 85 34.206 85.288C34.47 85.564 34.818 85.804 35.25 86.008C35.682 86.212 36.132 86.404 36.6 86.584C37.008 86.74 37.41 86.914 37.806 87.106C38.202 87.298 38.556 87.538 38.868 87.826C39.192 88.114 39.444 88.468 39.624 88.888C39.816 89.308 39.912 89.83 39.912 90.454C39.912 91.138 39.738 91.762 39.39 92.326C39.054 92.89 38.568 93.334 37.932 93.658C37.296 93.982 36.54 94.144 35.664 94.144C35.088 94.144 34.536 94.078 34.008 93.946C33.492 93.814 33.012 93.646 32.568 93.442C32.124 93.226 31.728 93.004 31.38 92.776L32.154 91.408C32.442 91.612 32.772 91.81 33.144 92.002C33.516 92.182 33.906 92.332 34.314 92.452C34.722 92.56 35.118 92.614 35.502 92.614C35.91 92.614 36.312 92.542 36.708 92.398C37.116 92.242 37.452 92.008 37.716 91.696C37.98 91.384 38.112 90.97 38.112 90.454C38.112 90.01 37.992 89.644 37.752 89.356C37.524 89.056 37.218 88.804 36.834 88.6C36.45 88.384 36.042 88.192 35.61 88.024C35.202 87.868 34.788 87.7 34.368 87.52C33.948 87.328 33.558 87.1 33.198 86.836C32.838 86.56 32.55 86.224 32.334 85.828C32.118 85.432 32.01 84.952 32.01 84.388C32.01 83.704 32.172 83.11 32.496 82.606C32.832 82.09 33.288 81.688 33.864 81.4C34.44 81.1 35.1 80.938 35.844 80.914C36.684 80.914 37.422 81.016 38.058 81.22C38.706 81.424 39.276 81.676 39.768 81.976L39.102 83.308ZM49.5786 83.308C49.1346 83.08 48.6486 82.882 48.1206 82.714C47.5926 82.546 47.0766 82.462 46.5726 82.462C45.8766 82.462 45.3186 82.624 44.8986 82.948C44.4906 83.272 44.2866 83.704 44.2866 84.244C44.2866 84.652 44.4186 85 44.6826 85.288C44.9466 85.564 45.2946 85.804 45.7266 86.008C46.1586 86.212 46.6086 86.404 47.0766 86.584C47.4846 86.74 47.8866 86.914 48.2826 87.106C48.6786 87.298 49.0326 87.538 49.3446 87.826C49.6686 88.114 49.9206 88.468 50.1006 88.888C50.2926 89.308 50.3886 89.83 50.3886 90.454C50.3886 91.138 50.2146 91.762 49.8666 92.326C49.5306 92.89 49.0446 93.334 48.4086 93.658C47.7726 93.982 47.0166 94.144 46.1406 94.144C45.5646 94.144 45.0126 94.078 44.4846 93.946C43.9686 93.814 43.4886 93.646 43.0446 93.442C42.6006 93.226 42.2046 93.004 41.8566 92.776L42.6306 91.408C42.9186 91.612 43.2486 91.81 43.6206 92.002C43.9926 92.182 44.3826 92.332 44.7906 92.452C45.1986 92.56 45.5946 92.614 45.9786 92.614C46.3866 92.614 46.7886 92.542 47.1846 92.398C47.5926 92.242 47.9286 92.008 48.1926 91.696C48.4566 91.384 48.5886 90.97 48.5886 90.454C48.5886 90.01 48.4686 89.644 48.2286 89.356C48.0006 89.056 47.6946 88.804 47.3106 88.6C46.9266 88.384 46.5186 88.192 46.0866 88.024C45.6786 87.868 45.2646 87.7 44.8446 87.52C44.4246 87.328 44.0346 87.1 43.6746 86.836C43.3146 86.56 43.0266 86.224 42.8106 85.828C42.5946 85.432 42.4866 84.952 42.4866 84.388C42.4866 83.704 42.6486 83.11 42.9726 82.606C43.3086 82.09 43.7646 81.688 44.3406 81.4C44.9166 81.1 45.5766 80.938 46.3206 80.914C47.1606 80.914 47.8986 81.016 48.5346 81.22C49.1826 81.424 49.7526 81.676 50.2446 81.976L49.5786 83.308Z" fill="#89BCD9"/>
</svg>
