<svg width="23" height="14" viewBox="0 0 23 14" fill="none" xmlns="http://www.w3.org/2000/svg">
<path d="M-0.00299996 13.0156V0.00162411H3.543C4.827 0.00162411 5.919 0.199624 6.819 0.595624C7.731 0.991625 8.463 1.51362 9.015 2.16162C9.567 2.80962 9.969 3.52962 10.221 4.32162C10.485 5.10162 10.617 5.88162 10.617 6.66162C10.617 7.64562 10.443 8.52762 10.095 9.30762C9.759 10.0876 9.291 10.7536 8.691 11.3056C8.091 11.8576 7.401 12.2836 6.621 12.5836C5.853 12.8716 5.037 13.0156 4.173 13.0156H-0.00299996ZM1.743 11.3416H3.831C4.551 11.3416 5.211 11.2336 5.811 11.0176C6.423 10.8016 6.951 10.4896 7.395 10.0816C7.851 9.67362 8.205 9.17562 8.457 8.58762C8.709 7.98762 8.835 7.30962 8.835 6.55362C8.835 5.74962 8.703 5.04762 8.439 4.44762C8.175 3.83562 7.815 3.32562 7.359 2.91762C6.903 2.50962 6.387 2.20362 5.811 1.99962C5.235 1.78362 4.629 1.67562 3.993 1.67562H1.743V11.3416ZM13.5497 0.00162411H22.0097V1.67562H15.2957V5.63562H21.2897V7.30962H15.2957V11.3416H22.2617V13.0156H13.5497V0.00162411Z" fill="#262E34"/>
</svg>
