<svg width="60" height="100" viewBox="0 0 60 100" fill="none" xmlns="http://www.w3.org/2000/svg">
<path d="M58.8744 35.3573L32.6427 9.12561C31.1419 7.6248 28.6623 7.6248 27.1615 9.12561L21.7455 14.5416L28.6623 21.4584C30.2936 20.9364 32.1207 21.2626 33.3605 22.5677C34.6656 23.8728 34.9918 25.6998 34.4698 27.3312L41.1256 33.9869C42.7569 33.4649 44.584 33.7912 45.8891 35.0962C47.7162 36.8581 47.7162 39.7945 45.8891 41.6215C44.062 43.4486 41.1909 43.4486 39.3638 41.6215C37.9935 40.2512 37.6672 38.2936 38.385 36.5971L32.186 30.398V46.7113C32.6427 46.907 33.0343 47.2333 33.4258 47.5595C35.2529 49.3214 35.2529 52.2577 33.4258 54.0848C31.5987 55.8467 28.7276 55.8467 26.9005 54.0848C25.0734 52.2577 25.0734 49.3866 26.9005 47.5595C27.3573 47.1028 27.8793 46.7765 28.4013 46.5807V30.0718C27.8793 29.876 27.3573 29.4845 26.9005 29.093C25.5302 27.7227 25.2039 25.7651 25.9217 24.0685L19.0701 17.2822L1.12561 35.2268C-0.375204 36.7276 -0.375204 39.2072 1.12561 40.708L27.292 66.8744C28.7928 68.3752 31.2724 68.3752 32.7733 66.8744L58.8091 40.8385C60.3752 39.2724 60.3752 36.8581 58.8744 35.3573Z" fill="#89BCD9"/>
<path d="M29.5522 92.884C29.3722 93.04 29.1202 93.196 28.7962 93.352C28.4722 93.496 28.1122 93.628 27.7162 93.748C27.3322 93.868 26.9302 93.964 26.5102 94.036C26.1022 94.108 25.7182 94.144 25.3582 94.144C24.3142 94.144 23.3722 93.982 22.5322 93.658C21.7042 93.334 20.9902 92.884 20.3902 92.308C19.8022 91.732 19.3462 91.054 19.0222 90.274C18.7102 89.494 18.5542 88.648 18.5542 87.736C18.5542 86.656 18.7282 85.69 19.0762 84.838C19.4362 83.974 19.9222 83.248 20.5342 82.66C21.1582 82.06 21.8722 81.61 22.6762 81.31C23.4802 80.998 24.3322 80.842 25.2322 80.842C25.9882 80.842 26.6902 80.932 27.3382 81.112C27.9862 81.292 28.5562 81.52 29.0482 81.796L28.4542 83.398C28.2142 83.254 27.9142 83.122 27.5542 83.002C27.2062 82.882 26.8462 82.786 26.4742 82.714C26.1022 82.63 25.7542 82.588 25.4302 82.588C24.6622 82.588 23.9662 82.708 23.3422 82.948C22.7182 83.176 22.1842 83.512 21.7402 83.956C21.2962 84.388 20.9542 84.916 20.7142 85.54C20.4742 86.152 20.3542 86.842 20.3542 87.61C20.3542 88.318 20.4742 88.966 20.7142 89.554C20.9542 90.142 21.2962 90.652 21.7402 91.084C22.1842 91.504 22.7122 91.834 23.3242 92.074C23.9482 92.302 24.6322 92.416 25.3762 92.416C25.8202 92.416 26.2582 92.374 26.6902 92.29C27.1222 92.194 27.4942 92.062 27.8062 91.894V89.302H25.2142V87.628H29.5522V92.884ZM32.4678 86.548H34.1418V94H32.4678V86.548ZM32.3418 83.848C32.3418 83.584 32.4438 83.362 32.6478 83.182C32.8638 83.002 33.0978 82.912 33.3498 82.912C33.6018 82.912 33.8238 83.002 34.0158 83.182C34.2198 83.362 34.3218 83.584 34.3218 83.848C34.3218 84.124 34.2198 84.352 34.0158 84.532C33.8238 84.7 33.6018 84.784 33.3498 84.784C33.0978 84.784 32.8638 84.694 32.6478 84.514C32.4438 84.334 32.3418 84.112 32.3418 83.848ZM37.7581 83.272H39.4321V86.584H41.4841V87.898H39.4321V94H37.7581V87.898H36.3901V86.584H37.7581V83.272Z" fill="#89BCD9"/>
</svg>
