<svg width="30" height="30" viewBox="0 0 30 30" fill="none" xmlns="http://www.w3.org/2000/svg">
<g opacity="0.6" clip-path="url(#clip0_5100_2548)">
<path d="M15 0.75C22.8858 0.75 29.25 7.11421 29.25 15C29.25 22.8858 22.8858 29.25 15 29.25C7.11421 29.25 0.75 22.8858 0.75 15C0.75 7.11421 7.11421 0.75 15 0.75ZM8 4.25C7.38976 4.25 6.73535 4.53638 6.25 4.90039L6.16406 4.96387L6.09961 5.0498C5.7503 5.51556 5.45025 6.07263 5.4502 6.7998C5.4502 7.49346 5.72292 8.14814 6.09961 8.65039L6.13184 8.69238L6.16992 8.73047C6.46224 9.02271 6.85381 9.23422 7.27441 9.34961H5.4502V22.3496H10.6504V9.34961H8.7041C9.11516 9.2309 9.51772 8.99608 9.77832 8.59375C10.3142 8.12171 10.5498 7.43393 10.5498 6.7998C10.5498 6.07263 10.2497 5.51556 9.90039 5.0498L9.86816 5.00781L9.83008 4.96973L9.73145 4.87793C9.49324 4.67315 9.20533 4.52871 8.94727 4.43359C8.64783 4.32328 8.30846 4.25 8 4.25ZM20.5381 9.02344C19.4825 8.84394 18.3792 8.96816 17.4258 9.33984C17.1212 9.4586 16.8261 9.60552 16.5498 9.7793V9.34961H11.3496V22.3496H16.4502V15.5C16.4502 14.1695 17.2637 13.6095 17.9258 13.5869C18.2711 13.5752 18.6091 13.701 18.8662 13.9746C19.1225 14.2475 19.3496 14.7252 19.3496 15.5V22.3496H24.6504V14.2998C24.6504 12.7242 24.1902 11.4845 23.4111 10.5879C22.6368 9.69674 21.5979 9.20367 20.5381 9.02344Z" stroke="#262E34" stroke-width="1.5"/>
</g>
<defs>
<clipPath id="clip0_5100_2548">
<rect width="30" height="30" fill="white"/>
</clipPath>
</defs>
</svg>
