<svg width="53" height="38" viewBox="0 0 53 38" fill="none" xmlns="http://www.w3.org/2000/svg">
<path d="M14 27.8594C13.4948 27.8438 13.0573 27.7266 12.6875 27.5078C12.3177 27.2891 12.0104 27 11.7656 26.6406C11.5312 26.2969 11.3542 25.9115 11.2344 25.4844C11.1146 25.0625 11.0547 24.6432 11.0547 24.2266V22.9062C11.0547 22.1562 10.875 21.612 10.5156 21.2734C10.1615 20.9349 9.61719 20.763 8.88281 20.7578V19.625C9.61719 19.625 10.1615 19.4583 10.5156 19.125C10.875 18.7865 11.0547 18.2396 11.0547 17.4844V16.1562C11.0547 15.7344 11.1094 15.3047 11.2188 14.8672C11.3333 14.4245 11.513 14.0286 11.7578 13.6797C11.987 13.3464 12.2865 13.0755 12.6562 12.8672C13.026 12.6536 13.474 12.5391 14 12.5234L14.1641 13.4219C13.7891 13.4323 13.4896 13.5208 13.2656 13.6875C13.0469 13.8542 12.8828 14.0651 12.7734 14.3203C12.6589 14.5807 12.5859 14.8724 12.5547 15.1953C12.5234 15.5182 12.5078 15.8385 12.5078 16.1562V17.4844C12.5078 18.1094 12.362 18.6589 12.0703 19.1328C11.7839 19.6016 11.3385 19.9583 10.7344 20.2031C11.3385 20.4427 11.7839 20.7995 12.0703 21.2734C12.3568 21.7422 12.5026 22.2865 12.5078 22.9062V24.2266C12.5078 24.5495 12.5339 24.8698 12.5859 25.1875C12.638 25.5104 12.7292 25.7995 12.8594 26.0547C12.9844 26.3151 13.151 26.5286 13.3594 26.6953C13.5729 26.862 13.8411 26.9505 14.1641 26.9609L14 27.8594Z" fill="#F8F5EC"/>
<path d="M38.8828 26.9609C39.2005 26.9505 39.4661 26.862 39.6797 26.6953C39.8932 26.5286 40.0651 26.3151 40.1953 26.0547C40.3203 25.7995 40.4089 25.5104 40.4609 25.1875C40.5182 24.8698 40.5469 24.5495 40.5469 24.2266V22.9062C40.5469 22.4948 40.6068 22.1146 40.7266 21.7656C40.8516 21.4167 41.0417 21.1146 41.2969 20.8594C41.4323 20.724 41.5833 20.6016 41.75 20.4922C41.9219 20.3828 42.1094 20.2865 42.3125 20.2031C42.1042 20.1198 41.9115 20.0208 41.7344 19.9062C41.5625 19.7917 41.4115 19.6641 41.2812 19.5234C41.0312 19.263 40.8464 18.9609 40.7266 18.6172C40.6068 18.2682 40.5469 17.8906 40.5469 17.4844V16.1562C40.5469 15.8385 40.5286 15.5182 40.4922 15.1953C40.4609 14.8724 40.3906 14.5807 40.2812 14.3203C40.1667 14.0651 40 13.8542 39.7812 13.6875C39.5625 13.5208 39.2656 13.4323 38.8906 13.4219L39.0469 12.5234C39.5521 12.5391 39.9844 12.6458 40.3438 12.8438C40.7083 13.0417 41.0078 13.2995 41.2422 13.6172C41.5078 13.9766 41.6979 14.3802 41.8125 14.8281C41.9323 15.276 41.9922 15.7188 41.9922 16.1562V17.4844C41.9922 17.7969 42.0208 18.0729 42.0781 18.3125C42.1406 18.5469 42.2318 18.75 42.3516 18.9219C42.5234 19.1667 42.7604 19.3464 43.0625 19.4609C43.3698 19.5703 43.737 19.625 44.1641 19.625V20.7578C43.7891 20.763 43.4609 20.8099 43.1797 20.8984C42.9036 20.9818 42.6771 21.1146 42.5 21.2969C42.3281 21.474 42.2005 21.6953 42.1172 21.9609C42.0339 22.2266 41.9922 22.5417 41.9922 22.9062V24.2266C41.9922 24.6432 41.9349 25.0625 41.8203 25.4844C41.7057 25.9115 41.5286 26.2995 41.2891 26.6484C41.0443 26.9974 40.737 27.2839 40.3672 27.5078C39.9974 27.7318 39.5573 27.849 39.0469 27.8594L38.8828 26.9609Z" fill="#F8F5EC"/>
<path d="M32.5339 35H40.0507L50.3594 20.3285L40.0507 5H32.5339L18.5741 35H11.7017L2.35938 20.3285L11.7017 5H18.5741" stroke="#262E34" stroke-opacity="0.8" stroke-width="4" stroke-linecap="round"/>
</svg>
