<svg width="80" height="100" viewBox="0 0 80 100" fill="none" xmlns="http://www.w3.org/2000/svg">
<path d="M32.8141 62.8917C28.8199 61.7545 25.3072 59.6607 22.2403 56.7365C21.2774 57.0794 20.2967 57.4224 19.2982 57.7473C18.8346 57.8917 18.3709 57.8375 17.8895 57.657C17.0336 57.3321 16.5165 56.7004 16.1421 55.9242C15.625 54.8953 14.9652 53.9567 14.4481 52.9278C13.9845 51.9711 13.3069 51.1408 12.9146 50.148C12.7185 49.6607 12.2014 49.3357 12.2014 48.722C11.7378 47.9639 12.1836 47.296 12.451 46.6282C12.5224 46.4477 12.6115 46.213 12.772 46.1408C13.4139 45.852 13.7349 45.2022 14.2698 44.8051C14.5194 44.6245 14.7869 44.426 15.0722 44.2094C14.6621 42.1336 14.3055 40.0578 14.3055 37.9278C14.3055 35.8159 14.6799 33.7762 15.0722 31.7545C14.3768 31.1047 13.7349 30.4729 13.0573 29.8773C12.3619 29.2635 11.9518 28.5054 12.0409 27.7112C12.0944 27.278 12.2192 26.8087 12.4332 26.4477C13.093 25.3827 13.6992 24.2635 14.3411 23.1805C14.8582 22.3141 15.304 21.4116 15.8746 20.5632C16.1777 20.13 16.356 19.6245 16.6592 19.1733C17.2476 18.3249 18.4244 17.9097 19.3873 18.1986C20.2432 18.4513 21.0456 18.8303 21.9193 18.9928C22.0085 19.0108 22.0798 19.1372 22.169 19.2274C25.2537 16.3213 28.7664 14.2455 32.7963 13.0361C32.9567 12.5487 32.9924 12.0253 33.1885 11.5199C33.3312 11.1408 33.2955 10.6715 33.3669 10.2563C33.563 9.17329 34.2227 8.54152 35.1678 8.21661C35.5066 8.1083 35.8454 8 36.2555 8C38.7518 8.0361 41.2482 8.0361 43.7445 8C44.4578 8 45.064 8.28881 45.6346 8.61372C46.1517 8.88448 46.437 9.46209 46.5797 10.0036C46.8293 10.9964 46.9719 12.0072 47.1681 13.0542C51.1801 14.2094 54.6928 16.2852 57.7597 19.2094C58.7226 18.8664 59.7033 18.5235 60.7018 18.1986C61.1654 18.0542 61.6291 18.1083 62.1105 18.2888C62.9664 18.6137 63.4835 19.2455 63.8579 20.0217C64.375 21.0505 65.0348 21.9892 65.5519 23.0181C66.0155 23.9747 66.6931 24.8051 67.0854 25.7978C67.2815 26.2852 67.7986 26.6101 67.7986 27.2238C68.2622 27.982 67.8164 28.6498 67.549 29.3177C67.4776 29.4982 67.3885 29.7329 67.228 29.8051C66.5861 30.0939 66.2651 30.7437 65.7302 31.1408C65.4806 31.3213 65.2131 31.5199 64.9278 31.7365C65.3379 33.8123 65.6945 35.8881 65.6945 38.018C65.6945 40.13 65.3736 42.1697 64.9278 44.1913C65.6232 44.8412 66.2651 45.4729 66.9427 46.0686C67.6381 46.6823 68.0482 47.4404 67.9591 48.2347C67.9056 48.6679 67.7986 49.1372 67.5668 49.4982C66.9249 50.5451 66.3186 51.6282 65.6945 52.6931C64.91 54.0108 64.268 55.4368 63.3587 56.6823C63.1982 57.3682 62.5563 57.4224 62.0927 57.6751C61.5934 57.9458 61.0941 57.8736 60.5414 57.7112C59.7211 57.4765 58.9366 57.0614 58.0807 56.9531C57.9915 56.935 57.9202 56.8087 57.831 56.7184C54.7463 59.6607 51.2514 61.7545 47.1681 62.9278C46.9719 63.9025 46.7936 64.9134 46.5797 65.9061C46.3657 66.8809 45.7238 67.4946 44.8144 67.7834C44.4756 67.8917 44.119 68 43.7267 68C41.2303 67.9639 38.734 67.9639 36.2377 68C35.5244 68 34.9182 67.7112 34.3476 67.3863C33.8305 67.1155 33.5273 66.5379 33.4203 65.9964C33.2242 64.9314 33.0281 63.9386 32.8141 62.8917ZM33.9731 46.9892C34.3297 46.7906 34.7398 46.6643 34.7577 46.231C34.7933 45.5812 34.8825 44.9134 34.7398 44.2996C34.4902 43.2527 34.0444 42.2419 33.777 41.1949C33.5987 40.5271 33.2064 39.8953 33.2242 39.1733C32.6536 37.7473 32.297 36.2491 31.8156 34.8051C31.4233 33.6137 31.138 32.3863 30.71 31.213C30.4782 30.5632 30.4247 29.8412 29.9968 29.2635C29.9611 29.2094 29.9433 29.1733 29.9433 29.1733C29.4619 28.8484 28.9626 28.9567 28.5346 28.9567C28.285 29.1913 28.071 29.3899 27.8749 29.5704C27.8571 30.148 27.4469 30.5993 27.5183 31.1588C26.8942 32.5668 26.6267 34.083 26.1096 35.5271C25.8422 36.2671 25.6817 37.0253 25.4677 37.7834C25.2716 38.5415 24.8436 39.2274 24.8436 40.0397C24.166 41.574 23.8272 43.2166 23.328 44.8231C23.2032 45.2202 23.1318 45.5993 23.3815 45.9783C23.4528 46.0866 23.4171 46.2491 23.4171 46.231C23.7024 46.5379 23.9164 46.7545 24.0947 46.9711C24.4335 46.9711 24.7901 46.9711 25.1646 46.9711C25.4142 46.6462 25.6638 46.3394 25.8956 46.0325C25.8422 45.0036 26.0561 44.3177 26.5197 43.2166C28.2672 43.2166 30.0146 43.2166 31.7621 43.2166C31.9047 43.7942 31.976 44.3538 32.1722 44.8773C32.2613 45.0939 32.3505 45.3105 32.3148 45.5271C32.2613 46.1949 32.4753 46.7184 33.2242 46.9711C33.4025 46.9892 33.67 46.9892 33.9731 46.9892ZM38.1456 46.9892C38.627 46.9531 39.1798 47.0975 39.5721 46.7004C39.7147 46.5199 39.8395 46.3394 40.0178 46.0866C40.0178 44.2816 40.0178 42.3863 40.0178 40.491C41.3195 40.491 42.6033 40.4368 43.8693 40.509C44.6361 40.5451 45.2602 40.3105 45.8664 39.9314C46.1517 39.7509 46.4013 39.4801 46.651 39.2274C47.3107 38.5776 47.6317 37.7834 47.6495 36.8448C47.6495 35.3646 47.6495 33.9025 47.6495 32.4224C47.6495 32.2058 47.596 31.9711 47.5425 31.7545C47.3464 30.9783 46.9363 30.4007 46.3835 29.8953C45.7416 29.2996 44.9927 28.9386 44.1011 28.9386C42.1041 28.9386 40.1248 28.9386 38.1099 28.9386C37.9138 29.1552 37.7176 29.3718 37.4858 29.5884C37.4858 35.148 37.4858 40.7437 37.4858 46.3574C37.7176 46.556 37.9316 46.7726 38.1456 46.9892ZM50.9839 46.9892C52.2143 46.9892 53.4624 46.9892 54.6928 46.9892C54.9067 46.7726 55.1207 46.556 55.3347 46.3574C55.3347 46.0144 55.3347 45.6895 55.3347 45.3466C55.3347 45.3105 55.3347 45.2924 55.3347 45.2744C55.0672 44.769 54.6571 44.4621 54.1222 44.4079C54.1222 40.0939 54.1222 35.7978 54.1222 31.5921C54.5145 31.3935 54.8533 31.213 55.2455 30.9964C55.299 30.5271 55.3347 30.0397 55.3704 29.6968C55.0851 29.3718 54.8889 29.1372 54.7284 28.9567C53.4446 28.9567 52.1964 28.9567 51.0909 28.9567C50.7878 29.2274 50.5738 29.426 50.3063 29.6787C50.3598 30.1119 50.4312 30.5993 50.4847 31.0144C50.9126 31.231 51.2514 31.4116 51.5545 31.574C51.5545 35.87 51.5545 40.1661 51.5545 44.426C51.3762 44.4621 51.1801 44.426 51.1087 44.5162C50.8591 44.769 50.4312 44.8412 50.342 45.2563C50.342 45.6173 50.342 45.9783 50.342 46.3394C50.556 46.556 50.7699 46.7726 50.9839 46.9892Z" fill="#89BCD9"/>
<path d="M30.8186 40.4559C29.7666 40.492 28.661 40.51 27.5555 40.5461C27.5199 40.5461 27.4664 40.6183 27.3594 40.7086C27.3772 39.5894 28.0013 38.6869 28.0726 37.658C28.6075 36.7555 28.661 35.6905 29.0177 34.6797C29.1246 34.788 29.2851 34.8963 29.2851 34.9865C29.303 35.7627 29.7487 36.4306 29.8914 37.1707C29.9984 37.6761 30.2837 38.1634 30.355 38.6689C30.4263 39.3187 30.8543 39.806 30.8186 40.4559Z" fill="#89BCD9"/>
<path d="M45.1744 36.9524C45.0496 37.151 44.9426 37.3495 44.7999 37.53C44.5503 37.8188 44.2294 37.9813 43.8192 37.9632C42.5711 37.9452 41.3229 37.9632 40.0391 37.9632C40.0391 35.8152 40.0391 33.6672 40.0391 31.4651C41.3407 31.4651 42.6781 31.447 43.9976 31.4651C44.6216 31.4831 45.1566 32.1329 45.1744 32.8188C45.1744 33.956 45.1744 35.0932 45.1744 36.2304C45.1744 36.4831 45.1744 36.7178 45.1744 36.9524Z" fill="#89BCD9"/>
<path d="M5.828 80.986C6.488 80.986 7.094 81.076 7.646 81.256C8.21 81.424 8.696 81.682 9.104 82.03C9.524 82.366 9.848 82.786 10.076 83.29C10.316 83.782 10.436 84.358 10.436 85.018C10.436 85.534 10.358 86.038 10.202 86.53C10.058 87.022 9.812 87.472 9.464 87.88C9.116 88.276 8.66 88.6 8.096 88.852C7.544 89.092 6.86 89.212 6.044 89.212H4.118V94H2.372V80.986H5.828ZM6.008 87.538C6.524 87.538 6.95 87.46 7.286 87.304C7.634 87.148 7.904 86.95 8.096 86.71C8.288 86.458 8.426 86.188 8.51 85.9C8.594 85.612 8.636 85.342 8.636 85.09C8.636 84.826 8.588 84.556 8.492 84.28C8.408 83.992 8.264 83.728 8.06 83.488C7.868 83.248 7.61 83.05 7.286 82.894C6.974 82.738 6.59 82.66 6.134 82.66H4.118V87.538H6.008ZM8.15 88.528L11.552 94H9.536L6.08 88.582L8.15 88.528ZM14.2372 80.986H22.6972V82.66H15.9832V86.62H21.9772V88.294H15.9832V92.326H22.9492V94H14.2372V80.986ZM32.7114 83.308C32.2674 83.08 31.7814 82.882 31.2534 82.714C30.7254 82.546 30.2094 82.462 29.7054 82.462C29.0094 82.462 28.4514 82.624 28.0314 82.948C27.6234 83.272 27.4194 83.704 27.4194 84.244C27.4194 84.652 27.5514 85 27.8154 85.288C28.0794 85.564 28.4274 85.804 28.8594 86.008C29.2914 86.212 29.7414 86.404 30.2094 86.584C30.6174 86.74 31.0194 86.914 31.4154 87.106C31.8114 87.298 32.1654 87.538 32.4774 87.826C32.8014 88.114 33.0534 88.468 33.2334 88.888C33.4254 89.308 33.5214 89.83 33.5214 90.454C33.5214 91.138 33.3474 91.762 32.9994 92.326C32.6634 92.89 32.1774 93.334 31.5414 93.658C30.9054 93.982 30.1494 94.144 29.2734 94.144C28.6974 94.144 28.1454 94.078 27.6174 93.946C27.1014 93.814 26.6214 93.646 26.1774 93.442C25.7334 93.226 25.3374 93.004 24.9894 92.776L25.7634 91.408C26.0514 91.612 26.3814 91.81 26.7534 92.002C27.1254 92.182 27.5154 92.332 27.9234 92.452C28.3314 92.56 28.7274 92.614 29.1114 92.614C29.5194 92.614 29.9214 92.542 30.3174 92.398C30.7254 92.242 31.0614 92.008 31.3254 91.696C31.5894 91.384 31.7214 90.97 31.7214 90.454C31.7214 90.01 31.6014 89.644 31.3614 89.356C31.1334 89.056 30.8274 88.804 30.4434 88.6C30.0594 88.384 29.6514 88.192 29.2194 88.024C28.8114 87.868 28.3974 87.7 27.9774 87.52C27.5574 87.328 27.1674 87.1 26.8074 86.836C26.4474 86.56 26.1594 86.224 25.9434 85.828C25.7274 85.432 25.6194 84.952 25.6194 84.388C25.6194 83.704 25.7814 83.11 26.1054 82.606C26.4414 82.09 26.8974 81.688 27.4734 81.4C28.0494 81.1 28.7094 80.938 29.4534 80.914C30.2934 80.914 31.0314 81.016 31.6674 81.22C32.3154 81.424 32.8854 81.676 33.3774 81.976L32.7114 83.308ZM35.4141 80.986H44.0541V82.66H40.5621V94H38.8161V82.66H35.4141V80.986ZM45.9091 89.392H49.2751V90.868H45.9091V89.392ZM50.9979 94L56.6859 80.446H56.7939L62.4639 94H60.4659L56.2179 83.182L57.4599 82.372L52.7079 94H50.9979ZM54.3279 89.068H59.1699L59.7459 90.58H53.8239L54.3279 89.068ZM68.389 80.986C69.337 80.986 70.147 81.148 70.819 81.472C71.491 81.784 72.007 82.24 72.367 82.84C72.739 83.44 72.925 84.166 72.925 85.018C72.925 85.534 72.847 86.044 72.691 86.548C72.535 87.04 72.283 87.49 71.935 87.898C71.599 88.294 71.155 88.612 70.603 88.852C70.051 89.092 69.379 89.212 68.587 89.212H66.661V94H64.915V80.986H68.389ZM68.569 87.538C69.085 87.538 69.511 87.454 69.847 87.286C70.183 87.118 70.447 86.908 70.639 86.656C70.831 86.392 70.969 86.116 71.053 85.828C71.137 85.54 71.179 85.282 71.179 85.054C71.179 84.79 71.137 84.52 71.053 84.244C70.969 83.956 70.825 83.698 70.621 83.47C70.429 83.23 70.171 83.038 69.847 82.894C69.535 82.738 69.145 82.66 68.677 82.66H66.661V87.538H68.569ZM75.62 80.986H77.366V94H75.62V80.986Z" fill="#89BCD9"/>
</svg>
