<svg width="80" height="100" viewBox="0 0 80 100" fill="none" xmlns="http://www.w3.org/2000/svg">
<g clip-path="url(#clip0_2169_945)">
<path d="M44.5024 67.0047C42.9693 68.9344 39.8602 67.8784 39.8227 65.4126L39.2812 29.3633H63.5214C67.9116 29.3633 70.3614 34.4343 67.6329 37.8704L44.5024 67.0047Z" fill="url(#paint0_linear_2169_945)"/>
<path d="M44.5024 67.0047C42.9693 68.9344 39.8602 67.8784 39.8227 65.4126L39.2812 29.3633H63.5214C67.9116 29.3633 70.3614 34.4343 67.6329 37.8704L44.5024 67.0047Z" fill="url(#paint1_linear_2169_945)" fill-opacity="0.2"/>
<path d="M34.644 8.99689C36.1771 7.06711 39.2862 8.12313 39.3237 10.589L39.5596 46.6383H15.625C11.2347 46.6383 8.78498 41.5672 11.5135 38.1312L34.644 8.99689Z" fill="#89BCD9"/>
</g>
<path d="M8.604 83.308C8.16 83.08 7.674 82.882 7.146 82.714C6.618 82.546 6.102 82.462 5.598 82.462C4.902 82.462 4.344 82.624 3.924 82.948C3.516 83.272 3.312 83.704 3.312 84.244C3.312 84.652 3.444 85 3.708 85.288C3.972 85.564 4.32 85.804 4.752 86.008C5.184 86.212 5.634 86.404 6.102 86.584C6.51 86.74 6.912 86.914 7.308 87.106C7.704 87.298 8.058 87.538 8.37 87.826C8.694 88.114 8.946 88.468 9.126 88.888C9.318 89.308 9.414 89.83 9.414 90.454C9.414 91.138 9.24 91.762 8.892 92.326C8.556 92.89 8.07 93.334 7.434 93.658C6.798 93.982 6.042 94.144 5.166 94.144C4.59 94.144 4.038 94.078 3.51 93.946C2.994 93.814 2.514 93.646 2.07 93.442C1.626 93.226 1.23 93.004 0.882 92.776L1.656 91.408C1.944 91.612 2.274 91.81 2.646 92.002C3.018 92.182 3.408 92.332 3.816 92.452C4.224 92.56 4.62 92.614 5.004 92.614C5.412 92.614 5.814 92.542 6.21 92.398C6.618 92.242 6.954 92.008 7.218 91.696C7.482 91.384 7.614 90.97 7.614 90.454C7.614 90.01 7.494 89.644 7.254 89.356C7.026 89.056 6.72 88.804 6.336 88.6C5.952 88.384 5.544 88.192 5.112 88.024C4.704 87.868 4.29 87.7 3.87 87.52C3.45 87.328 3.06 87.1 2.7 86.836C2.34 86.56 2.052 86.224 1.836 85.828C1.62 85.432 1.512 84.952 1.512 84.388C1.512 83.704 1.674 83.11 1.998 82.606C2.334 82.09 2.79 81.688 3.366 81.4C3.942 81.1 4.602 80.938 5.346 80.914C6.186 80.914 6.924 81.016 7.56 81.22C8.208 81.424 8.778 81.676 9.27 81.976L8.604 83.308ZM14.2926 94.288C13.6206 94.288 13.0626 94.084 12.6186 93.676C12.1866 93.256 11.9586 92.716 11.9346 92.056V86.548H13.6086V91.462C13.6326 91.87 13.7466 92.2 13.9506 92.452C14.1666 92.704 14.5026 92.836 14.9586 92.848C15.3786 92.848 15.7506 92.728 16.0746 92.488C16.4106 92.236 16.6806 91.9 16.8846 91.48C17.0886 91.048 17.1906 90.562 17.1906 90.022V86.548H18.8646V94H17.3346L17.1906 92.164L17.2806 92.488C17.1366 92.836 16.9146 93.148 16.6146 93.424C16.3266 93.688 15.9846 93.898 15.5886 94.054C15.1926 94.21 14.7606 94.288 14.2926 94.288ZM26.1527 94.18C25.5887 94.18 25.0427 94.048 24.5147 93.784C23.9987 93.52 23.5967 93.166 23.3087 92.722L23.4167 92.2V97.582H21.7607V86.44H23.2007L23.4347 88.348L23.2547 87.826C23.6147 87.37 24.0707 86.992 24.6227 86.692C25.1747 86.392 25.7927 86.242 26.4767 86.242C27.1727 86.242 27.7967 86.41 28.3487 86.746C28.9127 87.082 29.3567 87.55 29.6807 88.15C30.0047 88.75 30.1667 89.452 30.1667 90.256C30.1667 91.06 29.9927 91.756 29.6447 92.344C29.2967 92.932 28.8167 93.388 28.2047 93.712C27.6047 94.024 26.9207 94.18 26.1527 94.18ZM25.8287 92.848C26.3087 92.848 26.7467 92.74 27.1427 92.524C27.5507 92.296 27.8747 91.99 28.1147 91.606C28.3547 91.21 28.4747 90.766 28.4747 90.274C28.4747 89.77 28.3607 89.326 28.1327 88.942C27.9047 88.546 27.5987 88.234 27.2147 88.006C26.8427 87.778 26.4227 87.664 25.9547 87.664C25.5227 87.664 25.1327 87.748 24.7847 87.916C24.4367 88.084 24.1487 88.318 23.9207 88.618C23.6927 88.906 23.5307 89.242 23.4347 89.626V90.868C23.4947 91.252 23.6387 91.594 23.8667 91.894C24.0947 92.194 24.3767 92.428 24.7127 92.596C25.0607 92.764 25.4327 92.848 25.8287 92.848ZM35.5267 94.18C34.8307 94.18 34.1947 94.03 33.6187 93.73C33.0547 93.43 32.6047 92.992 32.2687 92.416C31.9447 91.828 31.7827 91.114 31.7827 90.274C31.7827 89.446 31.9567 88.732 32.3047 88.132C32.6527 87.52 33.1147 87.052 33.6907 86.728C34.2787 86.404 34.9207 86.242 35.6167 86.242C36.3127 86.242 36.9007 86.404 37.3807 86.728C37.8607 87.04 38.2267 87.412 38.4787 87.844L38.3707 88.132L38.5327 86.548H40.0807V94H38.4067V92.056L38.5867 92.488C38.5387 92.608 38.4307 92.764 38.2627 92.956C38.1067 93.136 37.8907 93.322 37.6147 93.514C37.3507 93.706 37.0447 93.868 36.6967 94C36.3487 94.12 35.9587 94.18 35.5267 94.18ZM35.9767 92.794C36.3967 92.794 36.7747 92.716 37.1107 92.56C37.4467 92.404 37.7227 92.188 37.9387 91.912C38.1667 91.624 38.3227 91.282 38.4067 90.886V89.428C38.3107 89.068 38.1427 88.756 37.9027 88.492C37.6627 88.216 37.3747 88.006 37.0387 87.862C36.7027 87.706 36.3307 87.628 35.9227 87.628C35.4787 87.628 35.0707 87.736 34.6987 87.952C34.3267 88.168 34.0267 88.468 33.7987 88.852C33.5827 89.236 33.4747 89.686 33.4747 90.202C33.4747 90.682 33.5887 91.12 33.8167 91.516C34.0447 91.912 34.3507 92.224 34.7347 92.452C35.1187 92.68 35.5327 92.794 35.9767 92.794ZM47.5135 94.18C46.8295 94.18 46.2235 94.03 45.6955 93.73C45.1795 93.43 44.7655 93.052 44.4535 92.596L44.6515 92.074V94H42.9775V80.068H44.6335V88.258L44.5795 87.628C44.8795 87.22 45.3055 86.89 45.8575 86.638C46.4215 86.374 47.0455 86.242 47.7295 86.242C48.4015 86.242 49.0135 86.404 49.5655 86.728C50.1175 87.052 50.5555 87.508 50.8795 88.096C51.2155 88.672 51.3835 89.362 51.3835 90.166C51.3835 91.006 51.2035 91.726 50.8435 92.326C50.4955 92.926 50.0275 93.388 49.4395 93.712C48.8515 94.024 48.2095 94.18 47.5135 94.18ZM47.1715 92.758C47.6515 92.758 48.0835 92.644 48.4675 92.416C48.8515 92.188 49.1515 91.882 49.3675 91.498C49.5835 91.102 49.6915 90.652 49.6915 90.148C49.6915 89.668 49.5775 89.236 49.3495 88.852C49.1335 88.456 48.8335 88.144 48.4495 87.916C48.0775 87.688 47.6515 87.574 47.1715 87.574C46.7635 87.574 46.3855 87.652 46.0375 87.808C45.6895 87.964 45.3955 88.18 45.1555 88.456C44.9155 88.72 44.7475 89.032 44.6515 89.392V90.886C44.7475 91.246 44.9095 91.57 45.1375 91.858C45.3655 92.134 45.6535 92.356 46.0015 92.524C46.3495 92.68 46.7395 92.758 47.1715 92.758ZM56.7435 94.18C56.0475 94.18 55.4115 94.03 54.8355 93.73C54.2715 93.43 53.8215 92.992 53.4855 92.416C53.1615 91.828 52.9995 91.114 52.9995 90.274C52.9995 89.446 53.1735 88.732 53.5215 88.132C53.8695 87.52 54.3315 87.052 54.9075 86.728C55.4955 86.404 56.1375 86.242 56.8335 86.242C57.5295 86.242 58.1175 86.404 58.5975 86.728C59.0775 87.04 59.4435 87.412 59.6955 87.844L59.5875 88.132L59.7495 86.548H61.2975V94H59.6235V92.056L59.8035 92.488C59.7555 92.608 59.6475 92.764 59.4795 92.956C59.3235 93.136 59.1075 93.322 58.8315 93.514C58.5675 93.706 58.2615 93.868 57.9135 94C57.5655 94.12 57.1755 94.18 56.7435 94.18ZM57.1935 92.794C57.6135 92.794 57.9915 92.716 58.3275 92.56C58.6635 92.404 58.9395 92.188 59.1555 91.912C59.3835 91.624 59.5395 91.282 59.6235 90.886V89.428C59.5275 89.068 59.3595 88.756 59.1195 88.492C58.8795 88.216 58.5915 88.006 58.2555 87.862C57.9195 87.706 57.5475 87.628 57.1395 87.628C56.6955 87.628 56.2875 87.736 55.9155 87.952C55.5435 88.168 55.2435 88.468 55.0155 88.852C54.7995 89.236 54.6915 89.686 54.6915 90.202C54.6915 90.682 54.8055 91.12 55.0335 91.516C55.2615 91.912 55.5675 92.224 55.9515 92.452C56.3355 92.68 56.7495 92.794 57.1935 92.794ZM66.2823 94.144C65.7543 94.144 65.2383 94.054 64.7343 93.874C64.2423 93.682 63.8343 93.4 63.5103 93.028L64.2123 92.056C64.5243 92.356 64.8423 92.584 65.1663 92.74C65.5023 92.884 65.8323 92.956 66.1563 92.956C66.3963 92.956 66.6183 92.926 66.8223 92.866C67.0263 92.806 67.1883 92.71 67.3083 92.578C67.4403 92.434 67.5063 92.242 67.5063 92.002C67.5063 91.738 67.4163 91.528 67.2363 91.372C67.0683 91.216 66.8463 91.09 66.5703 90.994C66.3063 90.898 66.0243 90.808 65.7243 90.724C65.1123 90.52 64.6443 90.238 64.3203 89.878C63.9963 89.518 63.8343 89.08 63.8343 88.564C63.8343 88.168 63.9303 87.802 64.1223 87.466C64.3263 87.118 64.6203 86.836 65.0043 86.62C65.4003 86.404 65.8863 86.296 66.4623 86.296C66.9783 86.296 67.4403 86.362 67.8483 86.494C68.2563 86.614 68.6403 86.818 69.0003 87.106L68.3343 88.15C68.1183 87.922 67.8603 87.754 67.5603 87.646C67.2603 87.538 66.9903 87.478 66.7503 87.466C66.5463 87.454 66.3483 87.484 66.1563 87.556C65.9763 87.628 65.8263 87.73 65.7063 87.862C65.5863 87.994 65.5263 88.15 65.5263 88.33C65.5263 88.582 65.6103 88.786 65.7783 88.942C65.9463 89.098 66.1623 89.224 66.4263 89.32C66.7023 89.404 66.9723 89.494 67.2363 89.59C67.6083 89.698 67.9383 89.842 68.2263 90.022C68.5143 90.202 68.7423 90.424 68.9103 90.688C69.0903 90.952 69.1803 91.282 69.1803 91.678C69.1803 92.122 69.0723 92.536 68.8563 92.92C68.6523 93.292 68.3343 93.592 67.9023 93.82C67.4823 94.036 66.9423 94.144 66.2823 94.144ZM74.9804 94.18C74.1284 94.18 73.3964 94.012 72.7844 93.676C72.1724 93.328 71.6984 92.86 71.3624 92.272C71.0384 91.672 70.8764 90.988 70.8764 90.22C70.8764 89.488 71.0624 88.822 71.4344 88.222C71.8064 87.622 72.3044 87.142 72.9284 86.782C73.5524 86.422 74.2484 86.242 75.0164 86.242C76.0004 86.242 76.8164 86.53 77.4644 87.106C78.1124 87.682 78.5504 88.474 78.7784 89.482L72.6404 91.642L72.2444 90.652L77.2844 88.816L76.9244 89.05C76.7804 88.654 76.5404 88.312 76.2044 88.024C75.8684 87.724 75.4304 87.574 74.8904 87.574C74.4344 87.574 74.0264 87.688 73.6664 87.916C73.3064 88.132 73.0244 88.432 72.8204 88.816C72.6164 89.2 72.5144 89.638 72.5144 90.13C72.5144 90.646 72.6224 91.102 72.8384 91.498C73.0544 91.882 73.3484 92.188 73.7204 92.416C74.1044 92.632 74.5364 92.74 75.0164 92.74C75.3404 92.74 75.6524 92.68 75.9524 92.56C76.2644 92.44 76.5524 92.284 76.8164 92.092L77.5904 93.334C77.2184 93.586 76.7984 93.79 76.3304 93.946C75.8744 94.102 75.4244 94.18 74.9804 94.18Z" fill="#89BCD9"/>
<defs>
<linearGradient id="paint0_linear_2169_945" x1="37.3408" y1="42.0033" x2="58.8846" y2="51.0358" gradientUnits="userSpaceOnUse">
<stop stop-color="#5496BC"/>
<stop offset="1" stop-color="#89BCD9"/>
</linearGradient>
<linearGradient id="paint1_linear_2169_945" x1="38.37" y1="19.693" x2="48.1957" y2="38.1867" gradientUnits="userSpaceOnUse">
<stop/>
<stop offset="1" stop-opacity="0"/>
</linearGradient>
<clipPath id="clip0_2169_945">
<rect width="58.4187" height="60" fill="white" transform="translate(10.3672 8)"/>
</clipPath>
</defs>
</svg>
