<svg width="60" height="60" viewBox="0 0 60 60" fill="none" xmlns="http://www.w3.org/2000/svg">
<g clip-path="url(#clip0_98511_514)">
<path d="M34.5024 59.0047C32.9693 60.9344 29.8602 59.8784 29.8227 57.4126L29.2812 21.3633H53.5214C57.9116 21.3633 60.3614 26.4343 57.6329 29.8704L34.5024 59.0047Z" fill="url(#paint0_linear_98511_514)"/>
<path d="M34.5024 59.0047C32.9693 60.9344 29.8602 59.8784 29.8227 57.4126L29.2812 21.3633H53.5214C57.9116 21.3633 60.3614 26.4343 57.6329 29.8704L34.5024 59.0047Z" fill="url(#paint1_linear_98511_514)" fill-opacity="0.2"/>
<path d="M24.644 0.996889C26.1771 -0.932889 29.2862 0.123128 29.3237 2.58895L29.5596 38.6383H5.62497C1.23473 38.6383 -1.21502 33.5672 1.51347 30.1312L24.644 0.996889Z" fill="#89BCD9"/>
</g>
<defs>
<linearGradient id="paint0_linear_98511_514" x1="27.3408" y1="34.0033" x2="48.8846" y2="43.0358" gradientUnits="userSpaceOnUse">
<stop stop-color="#5496BC"/>
<stop offset="1" stop-color="#89BCD9"/>
</linearGradient>
<linearGradient id="paint1_linear_98511_514" x1="28.37" y1="11.693" x2="38.1957" y2="30.1867" gradientUnits="userSpaceOnUse">
<stop/>
<stop offset="1" stop-opacity="0"/>
</linearGradient>
<clipPath id="clip0_98511_514">
<rect width="58.4187" height="60" fill="white" transform="translate(0.367188)"/>
</clipPath>
</defs>
</svg>
