<svg width="36" height="54" viewBox="0 0 36 54" fill="none" xmlns="http://www.w3.org/2000/svg">
<path d="M21.6951 2.66797L18.0006 9.06797L14.3049 2.66797H2L18.0006 30.3817L34 2.66797H21.6951Z" fill="#89BCD9"/>
<path d="M21.6936 2.66797L17.999 9.06797L14.3033 2.66797H8.39844L17.999 19.2957L27.5984 2.66797H21.6936Z" fill="#F8F5EC"/>
<path d="M2.37638 38.878L5.70838 47.25L4.93838 47.096L8.10238 38.878H9.68438L5.21838 49.462L0.766383 38.878H2.37638ZM12.0608 49.224C11.5381 49.224 11.1041 49.0653 10.7588 48.748C10.4228 48.4213 10.2454 48.0013 10.2268 47.488V43.204H11.5288V47.026C11.5474 47.3433 11.6361 47.6 11.7948 47.796C11.9628 47.992 12.2241 48.0947 12.5788 48.104C12.9054 48.104 13.1948 48.0107 13.4468 47.824C13.7081 47.628 13.9181 47.3667 14.0768 47.04C14.2354 46.704 14.3148 46.326 14.3148 45.906V43.204H15.6168V49H14.4268L14.3148 47.572L14.3848 47.824C14.2728 48.0947 14.1001 48.3373 13.8668 48.552C13.6428 48.7573 13.3768 48.9207 13.0688 49.042C12.7608 49.1633 12.4248 49.224 12.0608 49.224ZM20.5574 49.14C19.8947 49.14 19.3254 49.0093 18.8494 48.748C18.3734 48.4773 18.0047 48.1133 17.7434 47.656C17.4914 47.1893 17.3654 46.6573 17.3654 46.06C17.3654 45.4907 17.51 44.9727 17.7994 44.506C18.0887 44.0393 18.476 43.666 18.9614 43.386C19.4467 43.106 19.988 42.966 20.5854 42.966C21.3507 42.966 21.9854 43.19 22.4894 43.638C22.9934 44.086 23.334 44.702 23.5114 45.486L18.7374 47.166L18.4294 46.396L22.3494 44.968L22.0694 45.15C21.9574 44.842 21.7707 44.576 21.5094 44.352C21.248 44.1187 20.9074 44.002 20.4874 44.002C20.1327 44.002 19.8154 44.0907 19.5354 44.268C19.2554 44.436 19.036 44.6693 18.8774 44.968C18.7187 45.2667 18.6394 45.6073 18.6394 45.99C18.6394 46.3913 18.7234 46.746 18.8914 47.054C19.0594 47.3527 19.288 47.5907 19.5774 47.768C19.876 47.936 20.212 48.02 20.5854 48.02C20.8374 48.02 21.08 47.9733 21.3134 47.88C21.556 47.7867 21.78 47.6653 21.9854 47.516L22.5874 48.482C22.298 48.678 21.9714 48.8367 21.6074 48.958C21.2527 49.0793 20.9027 49.14 20.5574 49.14ZM24.4848 44.45C24.4848 44.2447 24.5595 44.072 24.7088 43.932C24.8675 43.7827 25.0355 43.708 25.2128 43.708C25.3901 43.708 25.5535 43.778 25.7028 43.918C25.8615 44.058 25.9408 44.2353 25.9408 44.45C25.9408 44.674 25.8615 44.856 25.7028 44.996C25.5535 45.1267 25.3901 45.192 25.2128 45.192C25.0355 45.192 24.8675 45.1267 24.7088 44.996C24.5595 44.856 24.4848 44.674 24.4848 44.45ZM24.4848 48.258C24.4848 48.0527 24.5595 47.88 24.7088 47.74C24.8675 47.5907 25.0355 47.516 25.2128 47.516C25.3901 47.516 25.5535 47.5907 25.7028 47.74C25.8615 47.88 25.9408 48.0527 25.9408 48.258C25.9408 48.482 25.8615 48.664 25.7028 48.804C25.5535 48.9347 25.3901 49 25.2128 49C25.0355 49 24.8675 48.9347 24.7088 48.804C24.5595 48.664 24.4848 48.482 24.4848 48.258ZM27.6874 51.786L26.9174 50.988C27.1787 50.764 27.3841 50.484 27.5334 50.148C27.6827 49.8213 27.7574 49.434 27.7574 48.986V43.204H29.0734V49.042C29.0734 49.6953 28.9614 50.246 28.7374 50.694C28.5227 51.1513 28.1727 51.5153 27.6874 51.786ZM27.6454 41.104C27.6454 40.8987 27.7247 40.726 27.8834 40.586C28.0514 40.446 28.2334 40.376 28.4294 40.376C28.6254 40.376 28.7981 40.446 28.9474 40.586C29.1061 40.726 29.1854 40.8987 29.1854 41.104C29.1854 41.3187 29.1061 41.496 28.9474 41.636C28.7981 41.7667 28.6254 41.832 28.4294 41.832C28.2334 41.832 28.0514 41.762 27.8834 41.622C27.7247 41.482 27.6454 41.3093 27.6454 41.104ZM32.8644 49.112C32.4538 49.112 32.0524 49.042 31.6604 48.902C31.2778 48.7527 30.9604 48.5333 30.7084 48.244L31.2544 47.488C31.4971 47.7213 31.7444 47.8987 31.9964 48.02C32.2578 48.132 32.5144 48.188 32.7664 48.188C32.9531 48.188 33.1258 48.1647 33.2844 48.118C33.4431 48.0713 33.5691 47.9967 33.6624 47.894C33.7651 47.782 33.8164 47.6327 33.8164 47.446C33.8164 47.2407 33.7464 47.0773 33.6064 46.956C33.4758 46.8347 33.3031 46.7367 33.0884 46.662C32.8831 46.5873 32.6638 46.5173 32.4304 46.452C31.9544 46.2933 31.5904 46.074 31.3384 45.794C31.0864 45.514 30.9604 45.1733 30.9604 44.772C30.9604 44.464 31.0351 44.1793 31.1844 43.918C31.3431 43.6473 31.5718 43.428 31.8704 43.26C32.1784 43.092 32.5564 43.008 33.0044 43.008C33.4058 43.008 33.7651 43.0593 34.0824 43.162C34.3998 43.2553 34.6984 43.414 34.9784 43.638L34.4604 44.45C34.2924 44.2727 34.0918 44.142 33.8584 44.058C33.6251 43.974 33.4151 43.9273 33.2284 43.918C33.0698 43.9087 32.9158 43.932 32.7664 43.988C32.6264 44.044 32.5098 44.1233 32.4164 44.226C32.3231 44.3287 32.2764 44.45 32.2764 44.59C32.2764 44.786 32.3418 44.9447 32.4724 45.066C32.6031 45.1873 32.7711 45.2853 32.9764 45.36C33.1911 45.4253 33.4011 45.4953 33.6064 45.57C33.8958 45.654 34.1524 45.766 34.3764 45.906C34.6004 46.046 34.7778 46.2187 34.9084 46.424C35.0484 46.6293 35.1184 46.886 35.1184 47.194C35.1184 47.5393 35.0344 47.8613 34.8664 48.16C34.7078 48.4493 34.4604 48.6827 34.1244 48.86C33.7978 49.028 33.3778 49.112 32.8644 49.112Z" fill="#F8F5EC"/>
</svg>
